<?xml version="1.0" encoding="utf-8"?>
<!-- Generator: Adobe Illustrator 21.1.0, SVG Export Plug-In . SVG Version: 6.00 Build 0)  -->
<!DOCTYPE svg PUBLIC "-//W3C//DTD SVG 1.1//EN" "http://www.w3.org/Graphics/SVG/1.1/DTD/svg11.dtd">
<svg version="1.1" id="Layer_1" xmlns="http://www.w3.org/2000/svg" xmlns:xlink="http://www.w3.org/1999/xlink" x="0px" y="0px"
	 viewBox="0 0 439 200" style="enable-background:new 0 0 439 200;" xml:space="preserve">
<style type="text/css">
	.st0{fill:#FFFFFF;}
	.st1{fill:#267366;}
	.st2{fill:#8CD9CC;}
</style>
<g>
	<g transform="matrix(1,0,0,1,0,0)">
		<path vector-effect="none" class="st0" d="M-376,0H824v200H-376V0"/>
	</g>
	<g transform="matrix(1,0,-0.267949,1,616.077,40)">
		<path vector-effect="none" class="st1" d="M-373,0h26c1.7,0,3,1.3,3,3v114c0,1.7-1.3,3-3,3h-26c-1.7,0-3-1.3-3-3V3
			C-376,1.3-374.7,0-373,0"/>
	</g>
	<g transform="matrix(1,0,0.309401,1,617.436,40)">
		<path vector-effect="none" class="st2" d="M-376,0h32v120h-32V0"/>
	</g>
	<g transform="matrix(0.34202,-0.939693,0.939693,0.34202,402.146,106.514)">
		<path vector-effect="none" class="st1" d="M-128.6-353.3h32v120h-32V-353.3"/>
	</g>
	<g transform="matrix(0.34202,-0.939693,1.13716,-0.200512,403.295,103.357)">
		<path vector-effect="none" class="st2" d="M75.4-353.3h32v120h-32V-353.3"/>
	</g>
	<g transform="matrix(1,0,-0.267949,1,544.077,40)">
		<path vector-effect="none" class="st1" d="M-373,0h26c1.7,0,3,1.3,3,3v112c0,2.8-2.2,5-5,5h-20c-3.9,0-7-3.1-7-7V3
			C-376,1.3-374.7,0-373,0"/>
	</g>
	<g transform="matrix(1,0,0.309401,1,545.436,40)">
		<path vector-effect="none" class="st2" d="M-376,0h27c2.8,0,5,2.2,5,5v115h-27c-2.8,0-5-2.2-5-5V0"/>
	</g>
	<g transform="matrix(-1,-1.22465e-16,1.22465e-16,-1,740,160)">
		<path vector-effect="none" class="st1" d="M376,0h36v120h-36V0"/>
	</g>
	<g transform="matrix(-1,-1.22465e-16,-0.57735,-1,770.641,160)">
		<path vector-effect="none" class="st2" d="M376,0h36v120h-36V0"/>
	</g>
</g>
</svg>
